<svg xmlns="http://www.w3.org/2000/svg" width="133.486" height="66.393" viewBox="0 0 133.486 66.393">
  <g id="Grupo_225" data-name="Grupo 225" transform="translate(111 902)">
    <g id="Grupo_225-2" data-name="Grupo 225" transform="translate(-110.384 -902)">
      <rect id="Rectángulo_164" data-name="Rectángulo 164" width="3.888" height="27.445" transform="translate(0 20.499)" fill="#fa5555"/>
      <rect id="Rectángulo_165" data-name="Rectángulo 165" width="3.886" height="20.564" transform="translate(7.529 27.38)" fill="#fa5555"/>
      <rect id="Rectángulo_166" data-name="Rectángulo 166" width="3.886" height="27.445" transform="translate(60.372 20.499)" fill="#fa5555"/>
      <rect id="Rectángulo_167" data-name="Rectángulo 167" width="3.886" height="27.445" transform="translate(67.901 20.499)" fill="#fa5555"/>
      <path id="Trazado_360" data-name="Trazado 360" d="M42.6,3.658A3.657,3.657,0,1,1,38.943,0,3.658,3.658,0,0,1,42.6,3.658" transform="translate(22.399 0)" fill="#fa5555"/>
      <path id="Trazado_361" data-name="Trazado 361" d="M42.6,9.392a3.657,3.657,0,1,1-3.658-3.658A3.659,3.659,0,0,1,42.6,9.392" transform="translate(22.399 3.74)" fill="#fa5555"/>
      <path id="Trazado_362" data-name="Trazado 362" d="M48.336,3.658A3.658,3.658,0,1,1,44.676,0a3.658,3.658,0,0,1,3.66,3.658" transform="translate(26.138 0)" fill="#fa5555"/>
      <path id="Trazado_363" data-name="Trazado 363" d="M48.336,9.392a3.658,3.658,0,1,1-3.66-3.658,3.659,3.659,0,0,1,3.66,3.658" transform="translate(26.138 3.74)" fill="#fa5555"/>
      <path id="Trazado_364" data-name="Trazado 364" d="M19.844,19.626A10.308,10.308,0,0,0,13.372,21.9v-9.5H9.486V39.852h3.886V38.063a10.355,10.355,0,1,0,6.472-18.437m0,17.272A6.913,6.913,0,0,1,13.372,32.4V27.561A6.913,6.913,0,1,1,19.844,36.9" transform="translate(5.571 8.092)" fill="#fa5555"/>
      <path id="Trazado_365" data-name="Trazado 365" d="M38.859,31.214A6.886,6.886,0,0,1,26.589,28.74h16.94a10.3,10.3,0,1,0-.7,2.473Zm-5.55-11a6.909,6.909,0,0,1,6.523,4.638H26.786a6.909,6.909,0,0,1,6.523-4.638" transform="translate(14.353 10.941)" fill="#fa5555"/>
      <path id="Trazado_366" data-name="Trazado 366" d="M9.028,14.5a2.093,2.093,0,1,1-2.092-2.093A2.092,2.092,0,0,1,9.028,14.5" transform="translate(2.542 8.091)" fill="#fa5555"/>
      <path id="Trazado_358" data-name="Trazado 358" d="M62.244,36.9V35.521a11.141,11.141,0,0,1-6.354,1.741,10.7,10.7,0,0,1-6.6-1.862,6.789,6.789,0,0,1-2.672-5.75V17.062h3.886V29.611q0,4.211,5.385,4.21,6.354,0,6.354-6.112V17.062H66.13V36.9Z" transform="translate(29.79 11.128)" fill="#fa5555"/>
      <path id="Trazado_359" data-name="Trazado 359" d="M88.861,37.008V24.337a4.172,4.172,0,0,0-1.033-3.157,4.769,4.769,0,0,0-3.339-.97,5.925,5.925,0,0,0-4.028,1.254,4.235,4.235,0,0,0-1.437,3.361V37.008H75.138V24.337a4.084,4.084,0,0,0-1.072-3.157,5.953,5.953,0,0,0-7.468.77A6.043,6.043,0,0,0,65.261,26v11.01H61.375V17.173h3.886v1.214a10.079,10.079,0,0,1,5.789-1.619,8.1,8.1,0,0,1,6.394,2.549q2.349-2.55,6.964-2.549a9.264,9.264,0,0,1,6.173,1.842,6.652,6.652,0,0,1,2.164,5.363V37.008Z" transform="translate(39.414 10.936)" fill="#fa5555"/>
    </g>
    <g id="Grupo_226" data-name="Grupo 226" transform="translate(-111 -849.099)">
      <path id="Trazado_367" data-name="Trazado 367" d="M.446,43.242a5.709,5.709,0,0,0,3.005.853c1.725,0,2.731-.91,2.731-2.229,0-1.2-.7-1.918-2.462-2.577-2.131-.777-3.45-1.9-3.45-3.722,0-2.036,1.687-3.547,4.226-3.547a5.853,5.853,0,0,1,2.868.639L6.9,34.034a4.847,4.847,0,0,0-2.462-.62c-1.784,0-2.462,1.066-2.462,1.958,0,1.221.795,1.822,2.6,2.52,2.211.853,3.314,1.92,3.314,3.838,0,2.016-1.474,3.78-4.555,3.78A6.762,6.762,0,0,1,0,44.658Z" transform="translate(0 -32.018)" fill="#40536b"/>
      <path id="Trazado_368" data-name="Trazado 368" d="M7.875,32.147V39.9c0,2.908,1.3,4.149,3.043,4.149,1.918,0,3.179-1.28,3.179-4.149V32.147H15.8v7.638c0,4.012-2.113,5.641-4.943,5.641-2.675,0-4.691-1.512-4.691-5.583v-7.7Z" transform="translate(4.024 -31.934)" fill="#40536b"/>
      <rect id="Rectángulo_168" data-name="Rectángulo 168" width="1.705" height="13.066" transform="translate(22.733 0.213)" fill="#40536b"/>
      <path id="Trazado_369" data-name="Trazado 369" d="M19.644,33.582H15.671V32.147h9.672v1.434H21.349v11.63H19.644Z" transform="translate(10.221 -31.934)" fill="#40536b"/>
      <path id="Trazado_370" data-name="Trazado 370" d="M29.156,39.087H24.1V43.8h5.661v1.414H22.392V32.147h7.075v1.414H24.1v4.129h5.059Z" transform="translate(14.605 -31.934)" fill="#40536b"/>
      <path id="Trazado_371" data-name="Trazado 371" d="M37.414,39.087H32.355V43.8h5.661v1.414H30.65V32.147h7.075v1.414h-5.37v4.129h5.059Z" transform="translate(19.99 -31.934)" fill="#40536b"/>
      <path id="Trazado_372" data-name="Trazado 372" d="M36.42,32.147h1.705V43.8h5.583v1.416H36.42Z" transform="translate(23.754 -31.934)" fill="#40536b"/>
      <path id="Trazado_373" data-name="Trazado 373" d="M48.72,39.087H43.661V43.8h5.661v1.414H41.956V32.147h7.075v1.414h-5.37v4.129H48.72Z" transform="translate(27.365 -31.934)" fill="#40536b"/>
      <path id="Trazado_374" data-name="Trazado 374" d="M58.886,39.475c-.1-1.822-.213-4.031-.213-5.641h-.04c-.464,1.512-.988,3.159-1.647,4.962l-2.306,6.34H53.4l-2.131-6.222c-.62-1.86-1.124-3.528-1.494-5.079h-.038c-.04,1.629-.135,3.8-.251,5.776l-.349,5.6H47.527l.91-13.066H50.59l2.229,6.32c.542,1.609.968,3.043,1.318,4.4h.038c.349-1.317.815-2.753,1.4-4.4l2.326-6.32h2.151l.813,13.066H59.2Z" transform="translate(30.998 -31.934)" fill="#40536b"/>
      <path id="Trazado_375" data-name="Trazado 375" d="M63.921,39.087H58.862V43.8h5.661v1.414H57.157V32.147h7.075v1.414h-5.37v4.129h5.059Z" transform="translate(37.279 -31.934)" fill="#40536b"/>
      <path id="Trazado_376" data-name="Trazado 376" d="M62.94,45.213V32.147H64.8l4.169,6.611A36.618,36.618,0,0,1,71.294,43l.059-.02c-.155-1.745-.195-3.334-.195-5.37V32.147h1.589V45.213H71.043L66.9,38.584a37.664,37.664,0,0,1-2.424-4.362l-.058.02c.1,1.647.116,3.217.116,5.388v5.583Z" transform="translate(41.051 -31.934)" fill="#40536b"/>
      <path id="Trazado_377" data-name="Trazado 377" d="M73.729,33.582H69.755V32.147h9.672v1.434H75.434v11.63H73.729Z" transform="translate(45.496 -31.934)" fill="#40536b"/>
      <path id="Trazado_378" data-name="Trazado 378" d="M76.463,43.242a5.709,5.709,0,0,0,3.005.853c1.725,0,2.731-.91,2.731-2.229,0-1.2-.7-1.918-2.462-2.577-2.131-.777-3.45-1.9-3.45-3.722,0-2.036,1.687-3.547,4.226-3.547a5.853,5.853,0,0,1,2.868.639l-.464,1.376a4.847,4.847,0,0,0-2.462-.62c-1.784,0-2.462,1.066-2.462,1.958,0,1.221.795,1.822,2.6,2.52,2.211.853,3.314,1.92,3.314,3.838,0,2.016-1.474,3.78-4.555,3.78a6.762,6.762,0,0,1-3.334-.853Z" transform="translate(49.58 -32.018)" fill="#40536b"/>
    </g>
  </g>
</svg>
